<svg width="160" height="160" viewBox="0 0 160 160" fill="none" xmlns="http://www.w3.org/2000/svg">
<path fill-rule="evenodd" clip-rule="evenodd" d="M80 152C119.764 152 152 119.764 152 80C152 40.2355 119.764 8 80 8C40.2355 8 8 40.2355 8 80C8 119.764 40.2355 152 80 152Z" fill="#CBE0DE"/>
<path fill-rule="evenodd" clip-rule="evenodd" d="M80 136C110.928 136 136 110.928 136 80C136 49.0721 110.928 24 80 24C49.0721 24 24 49.0721 24 80C24 110.928 49.0721 136 80 136ZM80 144C115.346 144 144 115.346 144 80C144 44.6538 115.346 16 80 16C44.6538 16 16 44.6538 16 80C16 115.346 44.6538 144 80 144Z" fill="black"/>
<path fill-rule="evenodd" clip-rule="evenodd" d="M37.8622 82.7473C46.1327 89.8259 58.9715 96.5025 74.4654 100.654C89.9594 104.806 104.416 105.443 115.118 103.448C126.458 101.334 130.771 96.9827 131.616 93.8304C132.46 90.6781 130.901 84.7533 122.137 77.2527C113.867 70.1741 101.028 63.4974 85.534 59.3458C70.04 55.1943 55.5829 54.557 44.8812 56.552C33.5415 58.666 29.2285 63.0173 28.3839 66.1696C27.5392 69.3218 29.0987 75.2466 37.8622 82.7473ZM20.6565 64.099C16.4565 79.7737 39.6205 99.5997 72.3949 108.382C105.169 117.163 135.143 111.576 139.343 95.901C143.543 80.2263 120.379 60.4003 87.6045 51.6184C54.8302 42.8366 24.8565 48.4243 20.6565 64.099Z" fill="black"/>
<path d="M108.284 68.6864C103.598 73.3727 95.9998 73.3727 91.3135 68.6864C86.6273 64.0001 86.6273 56.4022 91.3135 51.7159C95.9998 47.0296 103.598 47.0296 108.284 51.7159C112.97 56.4022 112.97 64.0001 108.284 68.6864Z" fill="black"/>
<path d="M61.6152 104.042C56.9289 108.728 49.3309 108.728 44.6446 104.042C39.9583 99.3555 39.9583 91.7575 44.6446 87.0712C49.3309 82.3849 56.9289 82.3849 61.6152 87.0712C66.3015 91.7575 66.3015 99.3555 61.6152 104.042Z" fill="black"/>
</svg>
