<svg width="3665" height="3439" viewBox="0 0 3665 3439" fill="none" xmlns="http://www.w3.org/2000/svg">
<g clipPath="url(#clip0_1284_4838)">
<rect width="3665" height="3439" rx="200" fill="#6C387A"/>
<path d="M261.875 4716C262.677 4678.78 265.28 4641.56 268.05 4604.35C271.513 4557.83 275.056 4511.32 278.672 4464.82C281.616 4426.95 284.582 4389.09 287.786 4351.24C291.271 4310.08 295.002 4268.94 298.698 4227.8C301.799 4193.29 304.801 4158.77 308.213 4124.29C312.74 4078.55 317.538 4032.83 322.38 3987.12C326.802 3945.38 331.305 3903.65 336.018 3861.94C340.432 3822.89 345.042 3783.85 349.798 3744.84C354.311 3707.81 359.019 3670.81 363.834 3633.82C369.595 3589.56 375.298 3545.3 381.508 3501.11C388.645 3450.33 396.125 3399.59 403.794 3348.88C412.059 3294.23 420.321 3239.57 429.309 3185.04C438.947 3126.56 449.047 3068.16 459.639 3009.85C472.967 2936.48 486.003 2863.04 500.971 2790C521.016 2692.18 541.793 2594.49 564.027 2497.15C615.187 2273.17 675.021 2051.55 747.529 1833.46C792.069 1699.49 841.074 1567.23 899.096 1438.44C911.673 1410.52 925.021 1382.95 937.967 1355.2C940.444 1349.89 942.703 1344.48 945.43 1338.28C939.075 1334.8 933.003 1336.1 927.433 1335.13C921.529 1334.09 915.59 1333.24 909.655 1332.39C850.449 1323.87 794.228 1306.15 741.543 1277.66C711.447 1261.38 683.968 1241.58 660.897 1216.1C641.869 1195.08 627.318 1171.46 619.628 1143.92C608.464 1103.94 611.778 1064.82 626.534 1026.37C639.655 992.185 660.307 962.92 686.2 937.412C736.362 887.999 795.924 855.641 865.055 841.707C896.72 835.326 928.49 834.661 960.138 843.192C981.914 849.062 1000.63 859.854 1016.85 875.308C1032.93 890.626 1045.6 908.503 1056.33 927.835C1077.85 966.649 1090.86 1008.46 1099.83 1051.69C1106.21 1082.43 1109.04 1113.6 1110.9 1144.88C1111.14 1148.84 1111.33 1152.8 1111.63 1158.22C1115.94 1157.2 1119.65 1156.85 1122.94 1155.48C1190.95 1127.32 1262.04 1110.11 1334.03 1096.16C1396.85 1083.99 1460.23 1075.4 1523.87 1069.16C1568.28 1064.81 1612.88 1062.25 1657.42 1059.2C1724.61 1054.61 1791.93 1053.66 1859.24 1054.14C1933.88 1054.68 2008.46 1056.96 2082.94 1062.83C2138.76 1067.23 2194.45 1072.52 2249.88 1080.3C2340.32 1093.01 2429.86 1109.99 2516.49 1139.82C2533.46 1145.66 2550.15 1152.32 2567.05 1158.63C2572.52 1155.76 2570.37 1150.45 2570.47 1146.22C2571.65 1098.66 2579.01 1052.07 2592.37 1006.46C2601.76 974.408 2614.31 943.631 2632.12 915.196C2641.36 900.449 2652.02 886.85 2664.63 874.816C2685.05 855.335 2709.38 844.286 2737.14 839.643C2774.93 833.325 2811.66 838.604 2847.62 849.537C2905.4 867.102 2955.86 897.407 2998.1 940.751C3027.83 971.269 3050.62 1006.16 3061.38 1047.92C3076.32 1105.87 3066.22 1158.79 3028.73 1205.96C3008.56 1231.32 2983.63 1251.18 2956.17 1268C2913.18 1294.34 2866.71 1312.31 2817.74 1323.48C2791.18 1329.53 2764.1 1333.27 2736.36 1338.22C2737.04 1340.46 2737.55 1343.66 2738.92 1346.44C2826.43 1525 2894.83 1711.05 2955.26 1900.17C3010.6 2073.32 3057.96 2248.71 3100.31 2425.48C3130.41 2551.1 3158.3 2677.22 3182.82 2804.02C3204.69 2917.1 3224.89 3030.53 3244.4 3144.04C3259.73 3233.29 3273.51 3322.83 3286.85 3412.4C3297.64 3484.86 3307.03 3557.54 3316.49 3630.19C3325.7 3700.87 3334.55 3771.6 3342.9 3842.38C3349.3 3896.63 3354.8 3950.99 3360.47 4005.32C3366.7 4064.96 3372.85 4124.6 3378.69 4184.27C3382.19 4220.08 3385.04 4255.95 3388.16 4291.8C3391.63 4331.63 3395.21 4371.44 3398.47 4411.29C3401.74 4451.14 3404.8 4491 3407.72 4530.88C3411.51 4582.71 3415.08 4634.57 3418.7 4686.42C3419.3 4695.06 3419.63 4703.73 3420.04 4714.19C2367.92 4716 1315.83 4716 261.875 4716ZM2135.78 2262.04C2058.89 2233.46 1978.9 2220.53 1897.41 2216.42C1832.78 2213.17 1768.22 2214.83 1703.95 2223.76C1650.37 2231.19 1597.8 2242.59 1547 2261.33C1519.46 2271.49 1492.94 2283.9 1468.52 2300.39C1451.31 2312.01 1435.52 2325.22 1423.25 2342.22C1399.18 2375.54 1399.19 2410.63 1423.37 2443.99C1433.65 2458.17 1446.48 2469.73 1460.56 2479.99C1478.39 2492.97 1497.62 2503.5 1517.74 2512.49C1581.6 2541.03 1649.07 2555.49 1718.07 2563.98C1740.52 2566.74 1763.1 2568.65 1785.47 2571.95C1799.43 2574.02 1812.29 2579.59 1822.58 2590.58C1822.82 2593.7 1823.18 2597 1823.31 2600.3C1824.89 2638.91 1825.83 2677.56 1828.22 2716.12C1829.78 2741.34 1833.31 2766.44 1836.31 2791.55C1836.62 2794.14 1839.33 2796.45 1842.58 2801.41C1844.77 2789.96 1847.22 2781.59 1847.85 2773.09C1850.89 2731.91 1853.59 2690.7 1856.12 2649.49C1857.05 2634.2 1858.04 2618.82 1857.44 2603.55C1856.94 2590.63 1863.4 2584.13 1873.86 2579.16C1889.19 2571.87 1905.47 2569.17 1922.18 2567.95C1978.77 2563.8 2034.59 2554.84 2089.2 2539.31C2128.35 2528.18 2166.29 2513.9 2201.32 2492.7C2217.34 2483 2232.38 2472.02 2245.41 2458.5C2285.87 2416.54 2285.91 2369.49 2245.59 2327.69C2233.49 2315.15 2219.74 2304.68 2204.95 2295.52C2183.95 2282.51 2161.8 2271.84 2135.78 2262.04ZM2705.86 1216.87C2731.89 1231.23 2760.2 1234.52 2788.96 1231.36C2816.66 1228.32 2843.75 1221.25 2869.62 1210.71C2881.88 1205.71 2893.78 1199.44 2904.99 1192.39C2929.7 1176.86 2947.51 1154.42 2962.54 1129.98C2972.67 1113.5 2979.07 1095.3 2979.98 1075.56C2981.05 1052.02 2973.28 1030.8 2960.9 1011.67C2943.15 984.226 2921.47 960.109 2894.34 941.207C2878.75 930.349 2861.69 922.597 2843.19 920.416C2811.25 916.652 2781.33 922.847 2754.44 942.267C2740.77 952.142 2730.06 964.772 2717.84 975.974C2706.91 985.996 2699.02 998.224 2692.26 1011.3C2672.38 1049.76 2660.94 1090.15 2664 1133.88C2666.27 1166.26 2677.02 1194.62 2705.86 1216.87ZM771.685 953.703C768.403 955.959 764.582 957.715 761.939 960.564C753.829 969.309 746.48 978.766 738.262 987.401C726.606 999.649 718.283 1013.94 711.496 1029.18C705.257 1043.19 699.726 1057.96 700.552 1073.25C701.59 1092.45 707.307 1110.74 717.157 1127.8C726.898 1144.68 741.003 1157.98 752.187 1173.62C754.042 1176.22 757.295 1177.79 759.829 1179.93C777.297 1194.63 796.974 1205.19 818.322 1213.37C842.683 1222.71 867.835 1228.56 893.496 1231.46C910.537 1233.38 927.806 1232.21 944.96 1228.32C974.391 1221.66 995.617 1205.75 1006.86 1177.59C1013.29 1161.47 1017.32 1144.9 1016.33 1127.1C1015.27 1107.92 1017.64 1088.5 1011.66 1069.72C1009.05 1061.5 1006.55 1053.22 1003.79 1045.04C988.332 999.318 960.271 963.734 919.399 937.724C892.606 920.674 863.388 915.605 833.325 921.054C811.182 925.067 790.512 935.427 771.685 953.703ZM2241.24 1752.59C2246.64 1756.32 2251.62 1761.03 2257.53 1763.62C2281.85 1774.28 2310.3 1762.02 2319.69 1737.39C2328.9 1713.23 2317.17 1685.99 2293.49 1676.52C2268.64 1666.58 2241.01 1678.7 2231.59 1703.66C2225.18 1720.68 2228.35 1736.12 2241.24 1752.59ZM1366.39 1693.6C1361.6 1700.28 1359.28 1707.82 1358.57 1715.93C1356.66 1737.89 1368.6 1756.88 1389.14 1764.49C1408.62 1771.7 1430.16 1765.49 1442.8 1749.01C1455.69 1732.21 1455.67 1708.11 1442.74 1691.43C1429.67 1674.56 1406.63 1668.03 1387.19 1676.92C1380.17 1680.13 1374.49 1686.26 1366.39 1693.6Z" fill="white"/>
<path d="M2137.2 2262.67C2161.8 2271.84 2183.95 2282.51 2204.96 2295.52C2219.74 2304.68 2233.49 2315.15 2245.59 2327.69C2285.91 2369.49 2285.87 2416.54 2245.41 2458.5C2232.38 2472.02 2217.34 2483 2201.32 2492.7C2166.29 2513.9 2128.35 2528.18 2089.2 2539.31C2034.59 2554.84 1978.77 2563.8 1922.18 2567.95C1905.47 2569.17 1889.19 2571.87 1873.86 2579.16C1863.4 2584.13 1856.94 2590.63 1857.44 2603.55C1858.04 2618.82 1857.05 2634.2 1856.12 2649.49C1853.59 2690.7 1850.9 2731.91 1847.85 2773.09C1847.22 2781.59 1844.77 2789.96 1842.58 2801.41C1839.33 2796.45 1836.62 2794.14 1836.31 2791.55C1833.31 2766.44 1829.78 2741.34 1828.22 2716.12C1825.83 2677.56 1824.89 2638.91 1823.31 2600.3C1823.18 2597 1822.82 2593.7 1822.58 2590.58C1812.29 2579.59 1799.43 2574.02 1785.47 2571.95C1763.1 2568.65 1740.52 2566.74 1718.07 2563.98C1649.07 2555.49 1581.6 2541.03 1517.74 2512.49C1497.62 2503.5 1478.39 2492.97 1460.56 2479.99C1446.48 2469.73 1433.65 2458.17 1423.37 2443.99C1399.19 2410.63 1399.18 2375.54 1423.25 2342.22C1435.52 2325.22 1451.31 2312.01 1468.52 2300.39C1492.94 2283.9 1519.46 2271.49 1547 2261.33C1597.8 2242.59 1650.38 2231.19 1703.95 2223.75C1768.22 2214.83 1832.78 2213.17 1897.41 2216.42C1978.9 2220.53 2058.89 2233.46 2137.2 2262.67Z" fill="#010101"/>
<path d="M2704.52 1216.22C2677.02 1194.62 2666.27 1166.26 2664 1133.88C2660.94 1090.15 2672.38 1049.76 2692.26 1011.3C2699.02 998.223 2706.91 985.996 2717.84 975.973C2730.06 964.772 2740.77 952.142 2754.44 942.267C2781.33 922.847 2811.25 916.652 2843.19 920.416C2861.69 922.597 2878.75 930.349 2894.34 941.207C2921.47 960.109 2943.15 984.226 2960.9 1011.67C2973.28 1030.8 2981.05 1052.02 2979.98 1075.56C2979.07 1095.3 2972.67 1113.5 2962.54 1129.98C2947.51 1154.42 2929.7 1176.86 2904.99 1192.39C2893.78 1199.44 2881.88 1205.71 2869.62 1210.71C2843.75 1221.25 2816.66 1228.32 2788.96 1231.36C2760.2 1234.52 2731.89 1231.23 2704.52 1216.22Z" fill="#FFCDD9"/>
<path d="M772.784 952.771C790.513 935.427 811.182 925.067 833.325 921.054C863.388 915.605 892.606 920.674 919.399 937.724C960.271 963.734 988.332 999.318 1003.79 1045.04C1006.55 1053.22 1009.05 1061.5 1011.66 1069.72C1017.64 1088.5 1015.27 1107.92 1016.33 1127.1C1017.32 1144.9 1013.29 1161.47 1006.86 1177.59C995.617 1205.75 974.391 1221.66 944.961 1228.32C927.806 1232.21 910.537 1233.38 893.497 1231.46C867.835 1228.56 842.683 1222.71 818.322 1213.37C796.974 1205.19 777.297 1194.63 759.829 1179.93C757.295 1177.79 754.042 1176.22 752.187 1173.62C741.003 1157.98 726.899 1144.68 717.157 1127.8C707.307 1110.74 701.59 1092.45 700.553 1073.25C699.727 1057.96 705.257 1043.19 711.496 1029.18C718.284 1013.94 726.606 999.649 738.262 987.401C746.48 978.766 753.829 969.309 761.939 960.564C764.582 957.715 768.403 955.959 772.784 952.771Z" fill="#FFCDD9"/>
<path d="M2240.27 1751.43C2228.35 1736.12 2225.18 1720.68 2231.59 1703.66C2241.01 1678.7 2268.64 1666.58 2293.49 1676.52C2317.17 1685.99 2328.9 1713.23 2319.69 1737.39C2310.3 1762.02 2281.85 1774.28 2257.53 1763.62C2251.62 1761.03 2246.64 1756.32 2240.27 1751.43Z" fill="#010101"/>
<path d="M1367.3 1692.33C1374.49 1686.26 1380.17 1680.13 1387.19 1676.92C1406.63 1668.03 1429.67 1674.56 1442.74 1691.43C1455.67 1708.11 1455.69 1732.21 1442.8 1749.01C1430.16 1765.49 1408.62 1771.7 1389.14 1764.49C1368.6 1756.88 1356.66 1737.89 1358.57 1715.93C1359.28 1707.82 1361.6 1700.28 1367.3 1692.33Z" fill="#010101"/>
<path d="M3268.14 1308L3268.96 1329.97C3269.45 1343.4 3280.24 1354.18 3293.68 1354.67L3316.28 1355.5L3293.68 1356.33C3280.24 1356.82 3269.45 1367.6 3268.96 1381.03L3268.14 1403L3267.33 1381.03C3266.83 1367.6 3256.05 1356.82 3242.61 1356.33L3220 1355.5L3242.61 1354.67C3256.05 1354.18 3266.83 1343.4 3267.33 1329.97L3268.14 1308Z" fill="white" fill-opacity="0.71"/>
<path d="M2315.5 300.053L2317.44 352.297C2318.62 384.26 2344.27 409.893 2376.23 411.061L2430 413.027L2376.23 414.992C2344.27 416.16 2318.62 441.794 2317.44 473.756L2315.5 526L2313.56 473.756C2312.38 441.794 2286.73 416.16 2254.77 414.992L2201 413.027L2254.77 411.061C2286.73 409.893 2312.38 384.26 2313.56 352.297L2315.5 300.053Z" fill="white" fill-opacity="0.71"/>
<path d="M262.5 2395L264.436 2447.24C265.621 2479.21 291.267 2504.84 323.231 2506.01L377 2507.97L323.231 2509.94C291.267 2511.11 265.621 2536.74 264.436 2568.7L262.5 2620.95L260.564 2568.7C259.379 2536.74 233.733 2511.11 201.769 2509.94L148 2507.97L201.769 2506.01C233.733 2504.84 259.379 2479.21 260.564 2447.24L262.5 2395Z" fill="white" fill-opacity="0.71"/>
</g>
<defs>
<clipPath id="clip0_1284_4838">
<rect width="3665" height="3439" fill="white"/>
</clipPath>
</defs>
</svg>
