<svg width="3665" height="3439" viewBox="0 0 3665 3439" fill="none" xmlns="http://www.w3.org/2000/svg">
<g clip-path="url(#clip0_2274_14395)">
<rect x="20" y="20" width="3625" height="3399" rx="180" fill="#6C387A" stroke="black" stroke-width="40"/>
<path d="M3268.14 1308L3268.96 1329.97C3269.45 1343.4 3280.24 1354.18 3293.68 1354.67L3316.28 1355.5L3293.68 1356.33C3280.24 1356.82 3269.45 1367.6 3268.96 1381.03L3268.14 1403L3267.33 1381.03C3266.83 1367.6 3256.05 1356.82 3242.61 1356.33L3220 1355.5L3242.61 1354.67C3256.05 1354.18 3266.83 1343.4 3267.33 1329.97L3268.14 1308Z" fill="white" fill-opacity="0.71"/>
<path d="M2315.5 300.053L2317.44 352.297C2318.62 384.26 2344.27 409.893 2376.23 411.061L2430 413.027L2376.23 414.992C2344.27 416.16 2318.62 441.793 2317.44 473.756L2315.5 526L2313.56 473.756C2312.38 441.793 2286.73 416.16 2254.77 414.992L2201 413.027L2254.77 411.061C2286.73 409.893 2312.38 384.26 2313.56 352.297L2315.5 300.053Z" fill="white" fill-opacity="0.71"/>
<path d="M262.5 2395L264.436 2447.24C265.621 2479.21 291.267 2504.84 323.231 2506.01L377 2507.97L323.231 2509.94C291.267 2511.11 265.621 2536.74 264.436 2568.7L262.5 2620.95L260.564 2568.7C259.379 2536.74 233.733 2511.11 201.769 2509.94L148 2507.97L201.769 2506.01C233.733 2504.84 259.379 2479.21 260.564 2447.24L262.5 2395Z" fill="white" fill-opacity="0.71"/>
<g clip-path="url(#clip1_2274_14395)">
<path d="M2611.58 3192.12C2692.36 3192.12 2757.87 3257.63 2757.87 3338.42C2757.87 3378.81 2741.5 3415.4 2715.03 3441.87C2688.53 3468.37 2651.97 3484.75 2611.58 3484.75H1804.54C1723.75 3484.75 1658.24 3419.24 1658.24 3338.45C1658.24 3298.05 1674.62 3261.49 1701.09 3235.03C1727.56 3208.56 1764.15 3192.15 1804.54 3192.15H2611.58V3192.12Z" fill="#FF88AA"/>
<path d="M1411.51 3231.44V3396.48C1411.51 3424.17 1389.06 3446.59 1361.4 3446.59C1333.74 3446.59 1311.29 3424.14 1311.29 3396.48V3231.44C1311.29 3203.78 1333.74 3181.33 1361.4 3181.33C1375.23 3181.33 1387.77 3186.93 1396.86 3196.02C1405.91 3205.07 1411.54 3217.58 1411.54 3231.44H1411.51Z" fill="#FF88AA"/>
<path d="M1241.88 3231.44V3396.48C1241.88 3424.17 1219.44 3446.59 1191.77 3446.59C1164.11 3446.59 1141.67 3424.14 1141.67 3396.48V3231.44C1141.67 3203.78 1164.11 3181.33 1191.77 3181.33C1205.61 3181.33 1218.15 3186.93 1227.23 3196.02C1236.29 3205.07 1241.91 3217.58 1241.91 3231.44H1241.88Z" fill="#FF88AA"/>
<path d="M3327.83 3484.72H2611.58C2651.97 3484.72 2688.53 3468.34 2715.03 3441.84C2741.5 3415.37 2757.87 3378.78 2757.87 3338.39C2757.87 3257.6 2692.36 3192.09 2611.58 3192.09H1804.54C1764.15 3192.09 1727.59 3208.46 1701.09 3234.96C1674.59 3261.46 1658.24 3297.99 1658.24 3338.39C1658.24 3419.21 1723.75 3484.68 1804.54 3484.68H379.489C448.206 3283.06 593.657 3108.72 779.627 3004.89L779.816 3003.6C974.337 3032.36 1381.8 3052.17 1852.95 3052.17C2324.1 3052.17 2733.45 3032.27 2927.44 3003.41L2927.66 3004.89C3113.66 3108.69 3259.11 3283.06 3327.83 3484.68V3484.72ZM1411.51 3396.48V3231.44C1411.51 3217.61 1405.88 3205.07 1396.83 3196.02C1387.77 3186.93 1375.23 3181.34 1361.37 3181.34C1333.7 3181.34 1311.26 3203.78 1311.26 3231.44V3396.48C1311.26 3424.17 1333.7 3446.59 1361.37 3446.59C1389.03 3446.59 1411.47 3424.14 1411.47 3396.48H1411.51ZM1241.88 3396.48V3231.44C1241.88 3217.61 1236.25 3205.07 1227.2 3196.02C1218.15 3186.93 1205.61 3181.34 1191.74 3181.34C1164.05 3181.34 1141.63 3203.78 1141.63 3231.44V3396.48C1141.63 3424.17 1164.08 3446.59 1191.74 3446.59C1219.41 3446.59 1241.85 3424.14 1241.85 3396.48H1241.88Z" fill="#D6D6D6"/>
<path d="M3109.92 2297.82C3106.27 2260.82 3099.8 2223.69 3089.7 2187.7C3088.86 2185.28 3088.07 2182.8 3087.38 2180.34C3084.61 2170.54 3082.82 2160.45 3079.58 2150.76C3075.43 2138.44 3070.12 2126.34 3064.68 2114.55C3059.4 2103.01 3053.84 2090.94 3046.48 2080.54C3045.51 2079.15 3044.5 2077.83 3043.43 2076.51C3039.72 2073.21 3035.92 2070.04 3031.99 2067.08C3019.07 2052.62 3003.54 2040.8 2984.65 2033.67C2960.41 2024.52 2931.77 2024.77 2908.01 2034.96C2905.56 2035.27 2903.14 2035.65 2900.72 2036.09C2894.9 2036.43 2889.15 2037.28 2883.52 2038.54C2871.42 2005.78 2857.05 1973.69 2842.22 1942.63C2816.82 1889.44 2787.11 1838.33 2753.63 1789.82C2685.95 1691.81 2603.62 1604.86 2509.22 1532.24C2482.69 1511.84 2455.31 1492.79 2426.8 1475.22C2398.79 1457.93 2369.93 1440.14 2338.37 1430.08C2330.32 1427.5 2324.76 1431.59 2322.65 1437.41C2309.64 1431.34 2296.59 1425.52 2283.52 1419.96C2221.4 1393.4 2157.15 1372.27 2091.26 1357.31C1961.37 1327.82 1825.76 1321.94 1693.76 1339.67C1443.44 1373.34 1211.33 1498.14 1040.22 1683.35C948.025 1783.16 866.703 1902.52 825.648 2032.91C825.428 2033.6 825.334 2034.27 825.24 2034.93C805.53 2037.03 785.254 2029.68 765.796 2027.57C741.842 2024.99 717.857 2032.25 698.273 2046.08C653.289 2077.83 638.735 2132.72 627.072 2183.61C613.115 2244.57 603.307 2306.46 597.429 2368.7C594.537 2399.32 592.022 2430.13 591.519 2460.87C591.11 2484.95 593.216 2510.41 605.602 2531.66C628.047 2570.2 672.276 2579.48 714.21 2580.89C714.273 2580.92 714.305 2580.99 714.368 2581.02C727.225 2590.32 742.565 2587.12 752.876 2576.93C758.345 2588.28 758.911 2602.71 760.986 2614.84C765.858 2643.42 772.02 2671.74 779.407 2699.75C788.712 2734.99 799.966 2769.75 813.106 2803.8C811.157 2804.33 809.239 2805.24 807.542 2806.78C807.007 2807.26 806.567 2807.79 806.064 2808.29C803.172 2801.53 793.962 2798.55 787.203 2799.55C764.067 2803.01 740.836 2806.16 717.731 2809.99C700.222 2812.88 681.989 2817.28 667.498 2828.1C656.433 2836.33 649.705 2851.67 658.004 2862.8C658.004 2896.75 658.099 2965 658.099 2965.5C658.099 2979.21 701.856 2992.19 779.753 3003.69C974.274 3032.46 1381.74 3052.26 1852.89 3052.26C2324.04 3052.26 2733.39 3032.36 2927.37 3003.51C3000.49 2992.6 3043.21 2980.46 3047.36 2967.61L3047.58 2891.63C3047.86 2890.94 3048.12 2890.21 3048.3 2889.43C3050.82 2879.34 3051.79 2868.18 3047.68 2859.03V2844.04C3047.71 2846.68 3046.07 2849.28 3042.9 2851.86C3042.17 2851.08 3041.36 2850.35 3040.48 2849.63C3040.23 2847.24 3039.5 2844.73 3038.18 2842.02C3030.83 2827.15 3004.39 2823.89 2990.12 2820.05C2969.87 2814.61 2949.35 2810.59 2928.6 2807.66C2926.52 2807.38 2924.39 2807.41 2922.31 2807.76C2916.09 2804.62 2908.95 2802.54 2901.6 2801.22C2918.54 2760.29 2931.46 2717.63 2939.7 2674.25C2944.69 2647.91 2948.25 2621.22 2950.26 2594.47C2964.34 2592.84 2978.17 2590.1 2992.1 2587.3C2999.11 2585.89 3003.26 2581.87 3005.02 2576.9C3009.64 2575.83 3014.23 2574.67 3018.82 2573.6C3023 2576.77 3028.72 2577.94 3035.79 2575.39C3082.03 2558.86 3095.58 2510.41 3103.16 2466.5C3112.78 2410.83 3115.32 2354.05 3109.79 2297.82H3109.92ZM824.171 2842.15C824.296 2838.97 824.422 2835.8 824.548 2832.66C824.548 2832.34 824.517 2832.06 824.517 2831.74C826.025 2835.3 827.534 2838.85 829.075 2842.37C827.44 2842.31 825.805 2842.27 824.171 2842.18V2842.15Z" fill="#D6D6D6"/>
<path d="M2557.63 1787.78C2735.46 2099.18 2852.9 2444.84 2902.01 2800.06C2905.71 2826.87 2909.05 2853.69 2911.94 2880.59L2912.13 2881.85C2712.51 2909.55 2313.13 2928.41 1852.98 2928.41C1392.83 2928.41 999.705 2909.83 798.583 2882.51L798.708 2881.54C801.632 2854.53 804.964 2827.59 808.673 2800.69C857.712 2445.28 975.217 2099.37 1153.14 1787.81C1110.11 1834.56 1021.14 1822.55 973.739 1780.24C872.675 1690.08 920.897 1553.15 992.978 1461.61C1064.71 1370.54 1209.79 1252.88 1322.23 1352.06C1394.63 1415.93 1375.48 1518.66 1356.93 1601.81C1511.53 1519.26 1683.45 1478.21 1855.37 1478.93C2027.29 1478.21 2199.24 1519.26 2353.81 1601.81C2335.29 1518.66 2316.12 1415.9 2388.51 1352.06C2500.95 1252.91 2646.06 1370.57 2717.76 1461.61C2789.81 1553.15 2838.03 1690.08 2737.03 1780.24C2689.63 1822.55 2600.67 1834.56 2557.63 1787.81V1787.78Z" fill="#FFFDF2"/>
<path d="M2909.27 2880.59C2906.34 2853.69 2903.01 2826.84 2899.33 2800.06C2850.23 2444.84 2732.79 2099.18 2554.96 1787.78C2598 1834.53 2686.96 1822.52 2734.36 1780.21C2835.39 1690.05 2787.17 1553.12 2715.09 1461.58C2643.39 1370.51 2498.31 1252.85 2385.84 1352.03C2313.44 1415.9 2332.59 1518.63 2351.14 1601.78C2264.09 1555.29 2171.55 1521.97 2076.61 1501.88C1980.73 1481.57 1879.92 1527.31 1832.27 1613.03C1785.05 1697.97 1784.3 1830.53 1866.5 1894.54C1954.2 1962.84 2076.74 1935.43 2174.53 1979.1C2186.19 1984.31 2197.76 1990.26 2206.91 1999.21C2216.03 2008.14 2222.5 2020.5 2221.81 2033.26C2220.9 2049.64 2208.23 2063.59 2193.33 2070.48C2178.43 2077.36 2161.55 2078.43 2145.14 2078.68C2090.38 2079.5 2033.51 2058.63 1980.61 2062.59C1951.22 2064.79 1924.25 2078.05 1914.59 2107.32C1897.31 2159.69 1934.74 2228.82 1968.66 2266.67C2010.16 2313 2064.01 2346.07 2114.08 2382.94C2202.7 2448.2 2289.33 2553.07 2303.26 2665.61C2308.41 2707.17 2301.97 2750.92 2280.25 2786.76C2258.94 2821.9 2224.29 2847.43 2186.98 2864.63C2151.46 2881 2113.96 2888.92 2076.52 2899.27C2043.51 2908.38 2003.46 2929.29 1969.32 2930.58C2013.11 2928.91 2057.34 2926.18 2101.16 2928.44C2143.57 2930.64 2189.28 2924.92 2232.06 2923.85C2318.79 2921.74 2405.49 2918.82 2492.12 2914.8C2623.02 2908.73 2754.35 2901.44 2884.43 2885.09C2892.79 2884.05 2901.13 2882.95 2909.46 2881.79L2909.27 2880.53V2880.59Z" fill="#F4F3E8"/>
<g style="mix-blend-mode:hard-light" opacity="0.42">
<path d="M1497.48 1346.34C1434.77 1294.78 1368.47 1245.52 1287.09 1229.49C1207.15 1213.74 1122.24 1224.78 1046.92 1254.92C904.896 1311.79 793.93 1441.84 789.309 1599.08C786.543 1692.6 823.888 1782.47 873.964 1859.64C881.1 1870.65 899.835 1873 906.405 1859.64C950.949 1768.83 1016.18 1691.34 1087.16 1620.08C1159.58 1547.4 1234.24 1475.13 1333.39 1441.71C1386.86 1423.7 1442.28 1410.72 1491.35 1381.8C1497.01 1378.46 1499.71 1373.65 1500.25 1368.66C1505.12 1362.09 1505.78 1353.13 1497.48 1346.31V1346.34Z" fill="#FFE6FC"/>
</g>
<g style="mix-blend-mode:hard-light" opacity="0.42">
<path d="M2843.88 1844.59C2893.96 1767.38 2931.27 1677.51 2928.54 1584.02C2923.92 1426.78 2812.92 1296.73 2670.92 1239.87C2595.61 1209.72 2510.7 1198.69 2430.76 1214.44C2349.37 1230.47 2283.08 1279.73 2220.36 1331.28C2213.64 1336.81 2212.79 1343.73 2215.33 1349.67C2207.6 1358.82 2208.45 1376.23 2223.51 1381.26C2413.72 1444.6 2583.82 1562.71 2711.54 1717.05C2747.85 1760.94 2780.26 1807.93 2808.99 1857.1C2819.86 1875.77 2846.96 1862.63 2843.85 1844.68C2843.85 1844.68 2843.88 1844.62 2843.91 1844.59H2843.88Z" fill="#FFE6FC"/>
</g>
<path d="M3327.83 3484.72H2611.58C2651.97 3484.72 2688.53 3468.34 2715.03 3441.84C2741.5 3415.37 2757.87 3378.78 2757.87 3338.39C2757.87 3257.6 2692.36 3192.09 2611.58 3192.09H1804.54C1764.15 3192.09 1727.59 3208.46 1701.09 3234.96C1674.59 3261.46 1658.24 3297.99 1658.24 3338.39C1658.24 3419.21 1723.75 3484.68 1804.54 3484.68H379.489C448.206 3283.06 593.657 3108.72 779.627 3004.89L779.816 3003.6C974.337 3032.36 1381.8 3052.17 1852.95 3052.17C2324.1 3052.17 2733.45 3032.27 2927.44 3003.41L2927.66 3004.89C3113.66 3108.69 3259.11 3283.06 3327.83 3484.68V3484.72ZM1411.51 3396.48V3231.44C1411.51 3217.61 1405.88 3205.07 1396.83 3196.02C1387.77 3186.93 1375.23 3181.34 1361.37 3181.34C1333.7 3181.34 1311.26 3203.78 1311.26 3231.44V3396.48C1311.26 3424.17 1333.7 3446.59 1361.37 3446.59C1389.03 3446.59 1411.47 3424.14 1411.47 3396.48H1411.51ZM1241.88 3396.48V3231.44C1241.88 3217.61 1236.25 3205.07 1227.2 3196.02C1218.15 3186.93 1205.61 3181.34 1191.74 3181.34C1164.05 3181.34 1141.63 3203.78 1141.63 3231.44V3396.48C1141.63 3424.17 1164.08 3446.59 1191.74 3446.59C1219.41 3446.59 1241.85 3424.14 1241.85 3396.48H1241.88Z" fill="#D6D6D6"/>
<path d="M3109.92 2297.82C3106.27 2260.82 3099.8 2223.69 3089.7 2187.7C3090.62 2187.04 3091.43 2186.25 3092.16 2185.37C3091.06 2178.77 3090.3 2172.08 3089.36 2165.44C3089.36 2165.26 3089.3 2165.07 3089.26 2164.88C3087.82 2158.65 3086.09 2152.49 3084.02 2146.43C3079.74 2133.95 3073.64 2122.06 3071.44 2108.92C3071.41 2108.73 3071.44 2108.55 3071.44 2108.36C3060.69 2092.51 3047.08 2078.4 3032.02 2067.02C3019.1 2052.56 3003.57 2040.74 2984.68 2033.6C2960.44 2024.46 2931.81 2024.71 2908.04 2034.89C2905.59 2035.21 2903.17 2035.59 2900.75 2036.03C2894.93 2036.37 2889.18 2037.22 2883.55 2038.48C2871.45 2005.72 2857.08 1973.63 2842.25 1942.57C2816.85 1889.38 2787.14 1838.27 2753.66 1789.76C2685.98 1691.75 2603.65 1604.8 2509.25 1532.18C2482.72 1511.78 2455.34 1492.73 2426.83 1475.16C2398.82 1457.87 2369.96 1440.08 2338.4 1430.02C2330.36 1427.44 2324.79 1431.53 2322.69 1437.34C2309.67 1431.28 2296.63 1425.46 2283.55 1419.9C2221.43 1393.33 2157.18 1372.21 2091.29 1357.25C1961.4 1327.76 1825.79 1321.88 1693.79 1339.61C1443.48 1373.28 1211.36 1498.07 1040.26 1683.29C948.057 1783.1 866.734 1902.46 825.68 2032.85C825.46 2033.54 825.366 2034.2 825.271 2034.86C805.561 2036.97 785.286 2029.61 765.827 2027.51C741.874 2024.93 717.889 2032.19 698.305 2046.02C653.321 2077.77 638.766 2132.66 627.104 2183.55C613.147 2244.5 603.339 2306.4 597.46 2368.64C594.568 2399.26 592.054 2430.07 591.551 2460.81C591.142 2484.89 593.248 2510.35 605.634 2531.6C628.078 2570.14 672.308 2579.41 714.242 2580.83C714.305 2580.86 714.336 2580.92 714.399 2580.95C727.256 2590.26 742.597 2587.05 752.907 2576.87C758.377 2588.22 758.943 2602.64 761.018 2614.78C765.89 2643.35 772.051 2671.68 779.439 2699.68C788.744 2734.92 799.997 2769.69 813.137 2803.74C811.188 2804.27 809.271 2805.18 807.573 2806.72C807.039 2807.19 806.599 2807.73 806.096 2808.23C803.204 2801.47 793.993 2798.49 787.235 2799.49C764.098 2802.95 740.868 2806.09 717.763 2809.93C700.254 2812.82 682.021 2817.22 667.53 2828.03C656.464 2836.27 649.737 2851.61 658.036 2862.74C658.036 2896.69 658.13 2964.93 658.13 2965.44C658.13 2979.14 701.888 2992.13 779.785 3003.63C974.305 3032.39 1381.77 3052.2 1852.92 3052.2C2324.07 3052.2 2733.42 3032.3 2927.41 3003.44C3000.52 2992.54 3043.24 2980.4 3047.39 2967.54L3047.61 2891.57C3047.9 2890.87 3048.15 2890.15 3048.34 2889.36C3050.85 2879.27 3051.83 2868.11 3047.71 2858.97V2843.97C3047.74 2846.61 3046.1 2849.22 3042.93 2851.8C3042.21 2851.01 3041.39 2850.29 3040.51 2849.57C3040.26 2847.18 3039.53 2844.66 3038.21 2841.96C3030.86 2827.09 3004.42 2823.82 2990.15 2819.99C2969.91 2814.55 2949.38 2810.53 2928.63 2807.6C2926.56 2807.32 2924.42 2807.35 2922.34 2807.7C2916.12 2804.55 2908.98 2802.48 2901.63 2801.16C2918.57 2760.23 2931.49 2717.57 2939.73 2674.19C2944.73 2647.85 2948.28 2621.16 2950.29 2594.41C2964.37 2592.77 2978.2 2590.04 2992.13 2587.24C2999.14 2585.83 3003.29 2581.8 3005.05 2576.84C3009.67 2575.77 3014.26 2574.6 3018.85 2573.54C3023.03 2576.71 3028.75 2577.87 3035.82 2575.33C3082.07 2558.79 3095.61 2510.35 3103.19 2466.44C3112.81 2410.76 3115.36 2353.99 3109.82 2297.75L3109.92 2297.82ZM824.171 2842.15C824.297 2838.97 824.422 2835.8 824.548 2832.66C824.548 2832.34 824.517 2832.06 824.517 2831.74C826.026 2835.3 827.535 2838.85 829.075 2842.37C827.44 2842.31 825.806 2842.27 824.171 2842.18V2842.15ZM2611.58 2254.09C2611.58 2542.48 2377.79 2776.26 2089.41 2776.26H1615.49C1327.1 2776.26 1093.32 2542.48 1093.32 2254.09C1093.32 1965.7 1327.1 1731.92 1615.49 1731.92H2089.41C2377.79 1731.92 2611.58 1965.7 2611.58 2254.09Z" fill="#D6D6D6"/>
<path d="M2145.61 2159.22C2171.8 2159.22 2193.02 2180.47 2193.02 2206.66C2193.02 2232.84 2171.77 2254.06 2145.61 2254.06C2119.46 2254.06 2098.21 2232.81 2098.21 2206.66C2098.21 2180.5 2119.43 2159.22 2145.61 2159.22Z" fill="black"/>
<path d="M2084.31 2369.21C2097.48 2403.31 2096.57 2442.55 2083.43 2476.5C2065.86 2521.92 2028.26 2557.98 1984.57 2579.51C1940.87 2601.04 1891.46 2608.93 1842.73 2608.77C1796.81 2608.62 1750.28 2601.29 1708.69 2581.74C1667.14 2562.16 1630.73 2529.62 1611.81 2487.75C1592.89 2445.88 1593.08 2394.54 1617.15 2355.41C1634.19 2327.65 1661.7 2307.56 1691.28 2294.01C1738.68 2272.32 1793.35 2259.15 1846.03 2259.4C1840.19 2259.4 1834.37 2259.62 1828.62 2259.97H1863.51C1858.83 2259.69 1854.11 2259.5 1849.4 2259.44C1904.41 2259.78 1963.76 2274.43 2011.45 2299.42C2040.87 2314.82 2072.12 2337.61 2084.34 2369.21H2084.31Z" fill="black"/>
<path d="M1863.45 2260H1828.56C1834.31 2259.62 1840.12 2259.47 1845.97 2259.44C1847.1 2259.44 1848.24 2259.44 1849.37 2259.44C1854.08 2259.5 1858.8 2259.69 1863.48 2259.97L1863.45 2260Z" fill="black"/>
<path d="M1521.03 2159.22C1547.21 2159.22 1568.43 2180.47 1568.43 2206.66C1568.43 2232.84 1547.18 2254.06 1521.03 2254.06C1494.87 2254.06 1473.62 2232.81 1473.62 2206.66C1473.62 2180.5 1494.84 2159.22 1521.03 2159.22Z" fill="black"/>
<path d="M2902.01 2802.38C2988.74 2814.39 3047.8 2829.48 3047.8 2844C3047.8 2858.53 2998.79 2872.17 2912.13 2884.18C2712.51 2911.87 2313.13 2930.73 1852.98 2930.73C1392.83 2930.73 999.705 2912.16 798.583 2884.84C708.993 2872.67 658.193 2858.75 658.193 2844C658.193 2829.26 711.193 2814.74 804.398 2802.38" stroke="black" stroke-width="8" stroke-linecap="round" stroke-linejoin="round"/>
<path d="M658.162 2843.97C657.942 2844.66 658.162 2964.72 658.162 2965.44C658.162 2979.14 701.92 2992.13 779.816 3003.63C974.337 3032.4 1381.8 3052.2 1852.95 3052.2C2324.1 3052.2 2733.45 3032.3 2927.44 3003.44C3000.55 2992.54 3043.27 2980.37 3047.42 2967.54L3047.77 2844" stroke="black" stroke-width="8" stroke-linecap="round" stroke-linejoin="round"/>
<path d="M812.697 2955.13C879.623 2963.71 966.101 2971.38 1067.7 2977.79" stroke="black" stroke-width="8" stroke-linecap="round" stroke-linejoin="round"/>
<path d="M1345.27 2990.96C1499.37 2996.21 1671.44 2999.17 1852.95 2999.17C2074.47 2999.17 2281.91 2994.8 2459.74 2987.16" stroke="black" stroke-width="8" stroke-linecap="round" stroke-linejoin="round"/>
<path d="M2556.94 2982.54C2693.81 2975.28 2808.61 2965.97 2892.7 2955.22" stroke="black" stroke-width="8" stroke-linecap="round" stroke-linejoin="round"/>
<path d="M1804.57 3484.72H379.489C448.206 3283.09 593.657 3108.75 779.627 3004.92" stroke="black" stroke-width="8" stroke-linecap="round" stroke-linejoin="round"/>
<path d="M2927.66 3004.92C3113.66 3108.72 3259.11 3283.09 3327.83 3484.72H2611.58" stroke="black" stroke-width="8" stroke-linecap="round" stroke-linejoin="round"/>
<path d="M2611.58 3484.72H1804.54C1723.75 3484.72 1658.24 3419.2 1658.24 3338.42C1658.24 3298.02 1674.62 3261.46 1701.09 3234.99C1727.56 3208.53 1764.15 3192.12 1804.54 3192.12H2611.58C2692.36 3192.12 2757.87 3257.63 2757.87 3338.42C2757.87 3378.81 2741.5 3415.4 2715.03 3441.87C2688.53 3468.37 2651.97 3484.75 2611.58 3484.75V3484.72Z" stroke="black" stroke-width="8" stroke-linecap="round" stroke-linejoin="round"/>
<path d="M1361.4 3446.59C1333.74 3446.59 1311.29 3424.14 1311.29 3396.48V3231.44C1311.29 3203.78 1333.74 3181.33 1361.4 3181.33C1375.23 3181.33 1387.77 3186.93 1396.86 3196.02C1405.91 3205.07 1411.54 3217.58 1411.54 3231.44V3396.48C1411.54 3424.17 1389.09 3446.59 1361.43 3446.59H1361.4Z" stroke="black" stroke-width="8" stroke-linecap="round" stroke-linejoin="round"/>
<path d="M1191.77 3446.59C1164.08 3446.59 1141.67 3424.14 1141.67 3396.48V3231.44C1141.67 3203.78 1164.11 3181.33 1191.77 3181.33C1205.61 3181.33 1218.15 3186.93 1227.23 3196.02C1236.29 3205.07 1241.91 3217.58 1241.91 3231.44V3396.48C1241.91 3424.17 1219.47 3446.59 1191.81 3446.59H1191.77Z" stroke="black" stroke-width="8" stroke-linecap="round" stroke-linejoin="round"/>
<path d="M1846 2424.88C1923.5 2424.88 1986.33 2398.29 1986.33 2365.5C1986.33 2332.7 1923.5 2306.12 1846 2306.12C1768.5 2306.12 1705.68 2332.7 1705.68 2365.5C1705.68 2398.29 1768.5 2424.88 1846 2424.88Z" fill="#252525"/>
<path d="M1522.19 2184.62C1522.19 2181.82 1521.47 2179.21 1520.05 2176.76C1519.23 2175.72 1518.42 2174.65 1517.63 2173.62C1515.68 2171.7 1513.42 2170.35 1510.78 2169.62C1509.02 2169.06 1507.13 2168.84 1505.28 2168.84C1504.4 2168.84 1503.33 2169.06 1502.57 2169.15C1501.54 2169.28 1500.72 2169.31 1499.78 2169.62C1495.28 2171.07 1491.19 2173.96 1488.96 2178.21C1487.48 2181 1486.6 2183.74 1486.6 2186.95C1486.6 2187.1 1486.6 2187.26 1486.6 2187.42C1486.79 2188.8 1486.98 2190.18 1487.17 2191.53C1487.55 2193.01 1488.11 2194.49 1488.9 2195.81C1489.34 2196.53 1489.78 2197 1490.38 2197.79C1492.01 2199.9 1492.26 2200.31 1495 2202.03C1495.15 2202.13 1495.31 2202.22 1495.47 2202.32C1496.7 2202.85 1497.95 2203.35 1499.18 2203.89C1499.3 2203.92 1499.4 2203.98 1499.52 2204.01C1500.28 2204.17 1501.03 2204.27 1501.79 2204.33C1502.54 2204.45 1503.3 2204.55 1504.05 2204.61C1504.24 2204.61 1504.43 2204.61 1504.62 2204.61C1507.85 2204.36 1510.31 2203.95 1513.17 2202.25C1515.65 2200.78 1517.91 2198.67 1519.39 2196.16C1519.83 2195.4 1520.02 2194.8 1520.4 2193.86C1521.43 2191.38 1521.78 2190.72 1521.84 2187.48C1521.84 2187.29 1521.84 2187.13 1521.84 2186.95C1521.94 2186.16 1522.06 2185.37 1522.16 2184.59L1522.19 2184.62Z" fill="#252525"/>
<path d="M2147.94 2186.63C2147.94 2183.83 2147.22 2181.22 2145.8 2178.77C2144.98 2177.73 2144.17 2176.67 2143.38 2175.63C2141.43 2173.71 2139.17 2172.36 2136.53 2171.64C2134.77 2171.07 2132.88 2170.85 2131.03 2170.85C2130.15 2170.85 2129.08 2171.07 2128.32 2171.16C2127.29 2171.29 2126.47 2171.32 2125.52 2171.64C2121.03 2173.08 2116.94 2175.97 2114.71 2180.22C2113.23 2183.02 2112.35 2185.75 2112.35 2188.96C2112.35 2189.11 2112.35 2189.27 2112.35 2189.43C2112.54 2190.81 2112.73 2192.19 2112.92 2193.55C2113.3 2195.02 2113.86 2196.5 2114.65 2197.82C2115.09 2198.54 2115.53 2199.02 2116.13 2199.8C2117.76 2201.91 2118.01 2202.32 2120.75 2204.05C2120.9 2204.14 2121.06 2204.23 2121.22 2204.33C2122.44 2204.86 2123.7 2205.37 2124.93 2205.9C2125.05 2205.93 2125.15 2206 2125.27 2206.03C2126.03 2206.18 2126.78 2206.28 2127.54 2206.34C2128.29 2206.47 2129.05 2206.56 2129.8 2206.62C2129.99 2206.62 2130.18 2206.62 2130.37 2206.62C2133.6 2206.37 2136.06 2205.96 2138.92 2204.27C2141.4 2202.79 2143.66 2200.68 2145.14 2198.17C2145.58 2197.41 2145.77 2196.82 2146.15 2195.87C2147.18 2193.39 2147.53 2192.73 2147.59 2189.49C2147.59 2189.3 2147.59 2189.15 2147.59 2188.96C2147.69 2188.17 2147.81 2187.39 2147.91 2186.6L2147.94 2186.63Z" fill="#252525"/>
<path d="M886.79 1883.16C749.387 1725.19 755.862 1485.53 906.122 1335.24C1063.14 1178.22 1317.73 1178.22 1474.78 1335.24C1475 1335.46 1475.22 1335.68 1475.44 1335.9L1508.55 1366.33" stroke="black" stroke-width="8" stroke-linecap="round" stroke-linejoin="round"/>
<path d="M2199.65 1371.99L2234.38 1333.1C2234.57 1332.88 2234.79 1332.69 2234.98 1332.47C2387.91 1171.46 2642.41 1164.89 2803.46 1317.83C2962.8 1469.15 2970.88 1719.98 2822.82 1881.24" stroke="black" stroke-width="8" stroke-linecap="round" stroke-linejoin="round"/>
<path d="M845.735 2880.85C804.995 2790.88 775.949 2694.47 760.515 2593.59" stroke="black" stroke-width="8" stroke-linecap="round" stroke-linejoin="round"/>
<path d="M820.964 2028.14C980.466 1613 1382.93 1318.36 1854.24 1318.36C2325.55 1318.36 2730.18 1614.61 2888.8 2031.53" stroke="black" stroke-width="8" stroke-linecap="round" stroke-linejoin="round"/>
<path d="M2947.55 2596.23C2932.94 2690.32 2900.09 2802.42 2863.34 2887.07" stroke="black" stroke-width="8" stroke-linecap="round" stroke-linejoin="round"/>
<path d="M796.642 2311.79C817.233 2158.07 789.735 2027.54 735.221 2020.24C680.708 2012.94 619.823 2131.63 599.231 2285.34C578.64 2439.06 606.139 2569.59 660.652 2576.89C715.165 2584.19 776.05 2465.5 796.642 2311.79Z" stroke="black" stroke-width="8" stroke-linecap="round" stroke-linejoin="round"/>
<path d="M735.147 2020.02C736.624 2020.02 833.319 2035.58 834.765 2035.77C889.273 2043.07 916.779 2173.62 896.221 2327.33C875.63 2481.05 814.772 2599.75 760.232 2592.46C756.082 2591.89 659.639 2577.65 655.804 2575.74" stroke="black" stroke-width="8" stroke-linecap="round" stroke-linejoin="round"/>
<path d="M3048.01 2576.45C3102.53 2569.14 3130.02 2438.61 3109.43 2284.9C3088.84 2131.19 3027.96 2012.5 2973.44 2019.8C2918.93 2027.1 2891.43 2157.63 2912.02 2311.35C2932.61 2465.06 2993.5 2583.75 3048.01 2576.45Z" stroke="black" stroke-width="8" stroke-linecap="round" stroke-linejoin="round"/>
<path d="M2973.3 2020.02C2971.82 2020.02 2875.13 2035.58 2873.68 2035.77C2819.17 2043.07 2791.67 2173.62 2812.23 2327.33C2832.82 2481.05 2893.67 2599.75 2948.21 2592.46C2952.36 2591.89 3048.81 2577.65 3052.64 2575.74" stroke="black" stroke-width="8" stroke-linecap="round" stroke-linejoin="round"/>
<g style="mix-blend-mode:hard-light" opacity="0.16">
<path d="M2089.44 1731.92H1615.52C1327.13 1731.92 1093.35 1965.7 1093.35 2254.09C1093.35 2542.48 1327.13 2776.26 1615.52 2776.26H2089.44C2377.82 2776.26 2611.61 2542.48 2611.61 2254.09C2611.61 1965.7 2377.82 1731.92 2089.44 1731.92Z" fill="#FFE6FC"/>
</g>
<g style="mix-blend-mode:hard-light" opacity="0.35">
<path d="M2134.2 1730.85C2133.57 1730.79 2132.94 1730.76 2132.25 1730.76H1844.37C1840.69 1729.66 1836.76 1729.66 1833.3 1731.17C1825.44 1732.77 1820.92 1738.84 1819.69 1745.66C1801.62 1769.55 1787.38 1797.34 1771.78 1822.61C1754.21 1851.09 1736.67 1879.57 1719.1 1908.02C1682.89 1966.74 1646.83 2025.59 1610.74 2084.37C1538 2202.85 1465.45 2321.46 1392.86 2440.06L1332.29 2539.02C1311.64 2572.75 1288.88 2605.95 1271.49 2641.5C1264.64 2655.55 1278.82 2666.11 1290.01 2660.77C1309.12 2687.33 1341.75 2699.62 1371.46 2713.77C1413.45 2733.76 1455.67 2758.53 1502.95 2762.02C1510.59 2762.59 1515.78 2759.19 1518.57 2754.26C1521.84 2753.03 1524.89 2750.86 1527.38 2747.5C1550.73 2716.13 1576.16 2686.2 1597.38 2653.6C1612.22 2623.96 1634.76 2596.14 1652.83 2568.35C1670.91 2540.56 1688.61 2509.94 1706.68 2480.86C1743.08 2422.24 1779.52 2363.64 1815.92 2305.02C1889.29 2186.91 1962.72 2068.81 2035.71 1950.46C2056.02 1917.55 2076.33 1884.6 2096.64 1851.69C2116.82 1818.97 2141.34 1786.34 2156.11 1750.78C2161.49 1737.89 2145.52 1726.83 2134.17 1730.85H2134.2Z" fill="white"/>
</g>
<g style="mix-blend-mode:hard-light" opacity="0.35">
<path d="M2171.64 2766.2C2211.44 2760.29 2250.67 2749.73 2288.08 2734.96C2325.2 2720.31 2359.78 2701.04 2391.5 2676.83C2421.9 2653.63 2449.9 2627.26 2474.99 2598.4C2524.85 2541.1 2563.26 2473.48 2584.98 2400.58C2595.67 2364.71 2602.27 2327.59 2604.19 2290.21C2606.26 2249.41 2602.11 2208.95 2594.51 2168.87C2590.04 2145.26 2584.51 2121.88 2578.76 2098.55C2575.93 2087.14 2572.75 2075.76 2570.21 2064.29C2568.04 2054.54 2566.4 2044.64 2563.95 2034.96C2561.31 2024.52 2557.63 2014.37 2551.66 2005.35C2545.72 1996.35 2538.8 1988.02 2531.57 1980.01C2530.63 1978.97 2529.65 1977.97 2528.68 1976.93C2525.16 1982.96 2521.61 1988.97 2517.99 1994.85C2500.42 2023.33 2482.88 2051.81 2465.31 2080.26C2429.09 2138.98 2393.04 2197.82 2356.95 2256.61C2284.21 2375.09 2211.66 2493.69 2139.07 2612.3L2078.5 2711.25C2066.39 2731.03 2053.57 2750.61 2041.53 2770.6C2084.85 2767.02 2128.35 2772.65 2171.55 2766.23L2171.64 2766.2Z" fill="white"/>
</g>
<path d="M3047.74 2843.41C3047.74 2843.59 3047.77 2843.78 3047.77 2844C3047.77 2858.49 2998.76 2872.17 2912.1 2884.18C2712.48 2911.87 2313.1 2930.73 1852.95 2930.73C1392.8 2930.73 999.673 2912.15 798.551 2884.84C708.961 2872.67 658.162 2858.75 658.162 2844C658.162 2843.88 658.162 2843.75 658.162 2843.59" stroke="black" stroke-width="8" stroke-linecap="round" stroke-linejoin="round"/>
<path d="M2089.44 1731.92H1615.52C1327.13 1731.92 1093.35 1965.7 1093.35 2254.09C1093.35 2542.48 1327.13 2776.26 1615.52 2776.26H2089.44C2377.82 2776.26 2611.61 2542.48 2611.61 2254.09C2611.61 1965.7 2377.82 1731.92 2089.44 1731.92Z" stroke="black" stroke-width="8" stroke-linecap="round" stroke-linejoin="round"/>
</g>
</g>
<rect x="0.5" y="0.5" width="3664" height="3438" stroke="black"/>
<defs>
<clipPath id="clip0_2274_14395">
<rect width="3665" height="3439" fill="white"/>
</clipPath>
<clipPath id="clip1_2274_14395">
<rect width="2957" height="2286" fill="white" transform="translate(375 1203)"/>
</clipPath>
</defs>
</svg>
