<?xml version="1.0" encoding="UTF-8"?>
<svg id="Layer_1" data-name="Layer 1" xmlns="http://www.w3.org/2000/svg" viewBox="0 0 495.68 472.15">
  <defs>
    <style>
      .cls-1 {
        fill: #070707;
      }

      .cls-2 {
        fill: #7a49d7;
      }
    </style>
  </defs>
  <path class="cls-2" d="m463.93,154.75c0,22.49-12.75,42.73-32.73,52.54-2.11-9.74-5.34-19.24-9.98-28.03-.71-1.36-2.31-2.04-3.8-1.54-1.69.53-2.6,2.35-2.05,4.02,7.82,24.69,10.53,51.02,6.24,76.58-7.03,37.94-29.87,73.03-62.52,93.8-66.48,42.08-155.77,42.08-222.29.05-56.65-35.9-77.73-107.82-55.92-170.25.59-1.74-.2-3.71-1.91-4.55-1.85-.92-4.11-.15-5.03,1.71-4.37,8.88-7.58,18.36-9.63,28.11-19.85-9.85-32.55-30.12-32.55-52.43,0-32.31,26.29-58.58,58.6-58.58,12.6,0,24.6,3.94,34.73,11.39,1.34.99,2.62,2.07,3.89,3.17-5.56,2.95-11.08,6.11-16.53,9.45-5.43,3.39-.48,11.3,4.88,8.15,19.32-11.52,39.7-21.32,61.07-28.31,64.14-22.07,136.33-11.96,192.63,25.54,2.4,1.58,5.65.88,7.19-1.56,1.54-2.4.82-5.61-1.58-7.16-3.3-2.13-6.64-4.13-9.98-6.09,10.7-9.43,24.31-14.58,38.69-14.58,32.29,0,58.58,26.27,58.58,58.58"/>
  <g>
    <path class="cls-1" d="m188.31,171.52c11.94-4.78,23.22-11.49,33.3-19.89,8.39-7.46-2.95-19.45-10.86-11.5-7.76,8.45-16.96,15.77-27.18,21.53-5.83,3.41-1.61,12.27,4.73,9.86"/>
    <path class="cls-1" d="m274.86,151.58c10.09,8.42,21.4,15.14,33.36,19.94,2.51,1.01,5.44.03,6.81-2.39,1.49-2.65.55-6.01-2.11-7.48-10.2-5.76-19.39-13.08-27.15-21.52-7.89-7.92-19.2,3.98-10.91,11.46"/>
    <path class="cls-1" d="m328.44,263.6c-17.95,10.18-43.24,12.07-59.39-2.16-8.23-7.24-12.71-17.65-13.29-28.5.34-4.83.18-9.92.41-14.4.09-4.01,3.1-7.35,7.07-7.87,15.44-2.03,26.41-7.19,26.41-13.24,0-7.82-18.35-14.16-40.98-14.16s-40.98,6.34-40.98,14.16c0,6.02,10.88,11.16,26.21,13.21,3.97.53,6.97,3.87,7.06,7.87v.02s.2,8.76.2,8.76c-.05,2.08.02,4.13.19,6.15-.03.62-.07,1.2-.13,1.72-1.35,15.1-11.57,29.01-26.14,33.86-15.11,5.1-32.46,2.44-46.33-5.4-2.18-1.29-5.01-.62-6.38,1.54-1.39,2.2-.73,5.11,1.46,6.5,29.58,18.75,68.55,13.42,84.77-15.08,9.66,16.53,27.79,27.16,48.95,26.06,12.72-.44,25.08-4.25,35.73-10.98,2.11-1.34,2.83-4.12,1.57-6.32-1.29-2.26-4.17-3.04-6.42-1.75"/>
  </g>
</svg>